<svg width="20" height="20" viewBox="0 0 20 20" fill="none" xmlns="http://www.w3.org/2000/svg">
<g clip-path="url(#clip0_42_173)">
<path d="M19.3743 8.74946C19.0293 8.74946 18.7493 9.02945 18.7493 9.37442V16.4515L13.7496 18.4514V11.8743C13.7496 11.5293 13.4696 11.2493 13.1247 11.2493C12.7797 11.2493 12.4997 11.5293 12.4997 11.8743V18.4501L7.50002 16.4502V6.54835L10.3961 7.70703C10.7123 7.83452 11.0798 7.67953 11.2085 7.3583C11.3373 7.03832 11.181 6.67459 10.8598 6.54585L7.11879 5.04844C7.11879 5.04844 7.11879 5.04844 7.11754 5.04844L7.10754 5.04469C6.9588 4.9847 6.79256 4.9847 6.64382 5.04469L6.63257 5.04844C6.63257 5.04844 6.63257 5.04844 6.63132 5.04844L0.392964 7.54454C0.156729 7.63953 0.000488281 7.86827 0.000488281 8.1245V19.3738C0.000488281 19.5813 0.104232 19.775 0.275471 19.8913C0.380465 19.9625 0.501707 19.9988 0.625449 19.9988C0.704194 19.9988 0.782939 19.9838 0.857935 19.9538L6.87506 17.5477L12.8809 19.95C12.8809 19.95 12.8809 19.95 12.8822 19.95L12.8934 19.955C13.0422 20.015 13.2084 20.015 13.3572 19.955L13.3684 19.95C13.3684 19.95 13.3684 19.95 13.3697 19.95L19.608 17.4552C19.843 17.3589 19.9992 17.1302 19.9992 16.874V9.37442C19.9992 9.02945 19.7193 8.74946 19.3743 8.74946ZM6.2501 16.4502L1.25041 18.4501V8.54698L6.2501 6.5471V16.4502Z" fill="white"/>
<path d="M15.6249 2.49982C14.5912 2.49982 13.75 3.34101 13.75 4.3747C13.75 5.40839 14.5912 6.24958 15.6249 6.24958C16.6586 6.24958 17.4998 5.40839 17.4998 4.3747C17.4998 3.34101 16.6586 2.49982 15.6249 2.49982ZM15.6249 4.99966C15.2799 4.99966 14.9999 4.71968 14.9999 4.3747C14.9999 4.02972 15.2799 3.74974 15.6249 3.74974C15.9699 3.74974 16.2498 4.02972 16.2498 4.3747C16.2498 4.71968 15.9699 4.99966 15.6249 4.99966Z" fill="white"/>
<path d="M15.6247 0C13.2124 0 11.25 1.96238 11.25 4.37473C11.25 6.61959 14.7598 10.5956 15.1598 11.0418C15.2785 11.1731 15.4472 11.2493 15.6247 11.2493C15.8022 11.2493 15.971 11.1731 16.0897 11.0418C16.4897 10.5956 19.9995 6.61959 19.9995 4.37473C19.9995 1.96238 18.0371 0 15.6247 0ZM15.6247 9.67065C14.2598 8.052 12.4999 5.56715 12.4999 4.37473C12.4999 2.65233 13.9023 1.24992 15.6247 1.24992C17.3471 1.24992 18.7495 2.65233 18.7495 4.37473C18.7495 5.5659 16.9896 8.052 15.6247 9.67065Z" fill="white"/>
</g>
<defs>
<clipPath id="clip0_42_173">
<rect width="20" height="20" fill="white"/>
</clipPath>
</defs>
</svg>
